<?xml version="1.0" encoding="utf-8"?>
<!-- Generator: Adobe Illustrator 22.0.1, SVG Export Plug-In . SVG Version: 6.00 Build 0)  -->
<svg version="1.1" id="Layer_1" xmlns="http://www.w3.org/2000/svg" xmlns:xlink="http://www.w3.org/1999/xlink" x="0px" y="0px"
	 viewBox="0 0 214.8 225.9" style="enable-background:new 0 0 214.8 225.9;" xml:space="preserve">
<style type="text/css">
	.st0{fill:#FDBF18;}
	.st1{fill:#F5871F;}
	.st2{fill:#C13E3D;}
	.st3{fill:#20344C;}
</style>
<path class="st0" d="M62.4,178.9c-1.4,0-2.7-0.2-4-0.5c-8.2-2.2-13-10.6-10.8-18.8l23.8-88.9c2.5-8.1,11.1-12.6,19.2-10.1
	c7.6,2.4,12.2,10.2,10.4,18l-23.8,88.9C75.4,174.2,69.3,178.9,62.4,178.9z"/>
<path class="st1" d="M111.1,178.9c-1.4,0-2.7-0.2-4-0.5c-8.2-2.2-13-10.6-10.8-18.8L128,41c2.2-8.2,10.6-13,18.8-10.8
	s13,10.6,10.8,18.8l-31.8,118.5C124.1,174.2,118,178.9,111.1,178.9z"/>
<path class="st2" d="M159.7,178.9c-1.4,0-2.7-0.2-4-0.5c-8.2-2.2-13-10.6-10.9-18.8l39.7-148.2c2.2-8.2,10.6-13,18.8-10.9
	s13,10.6,10.9,18.8l-39.7,148.2C172.7,174.2,166.7,178.9,159.7,178.9z"/>
<path class="st3" d="M147.1,225.9H62.5C28,225.9,0,197.9,0,163.5c0-5.5,0.7-10.9,2.1-16.2l12.6-46.9c2.2-8.2,10.6-13,18.8-10.8
	s13,10.6,10.8,18.8l-12.6,46.9c-4.6,16.9,5.5,34.4,22.4,38.9c2.7,0.7,5.5,1.1,8.3,1.1h84.6c8.5,0,15.3,6.9,15.3,15.3
	C162.4,219,155.6,225.9,147.1,225.9z"/>
</svg>
